<mxfile host="app.diagrams.net" modified="2024-05-26T21:33:17.502Z" agent="Mozilla/5.0 (Windows NT 10.0; Win64; x64) AppleWebKit/537.36 (KHTML, like Gecko) Chrome/125.0.0.0 Safari/537.36" etag="HnkA14YQuVwp9Wo-48aS" version="24.4.8" type="device">
  <diagram name="Page-1" id="mL8viWGrzA9fMk0VE5Cm">
    <mxGraphModel dx="1050" dy="522" grid="0" gridSize="10" guides="1" tooltips="1" connect="1" arrows="1" fold="1" page="1" pageScale="1" pageWidth="1654" pageHeight="2336" math="0" shadow="0">
      <root>
        <mxCell id="0" />
        <mxCell id="1" parent="0" />
        <mxCell id="tAokP68bowRmvEg5WWM1-7" style="edgeStyle=orthogonalEdgeStyle;rounded=0;orthogonalLoop=1;jettySize=auto;html=1;exitX=1;exitY=0.5;exitDx=0;exitDy=0;" edge="1" parent="1" source="tAokP68bowRmvEg5WWM1-1" target="tAokP68bowRmvEg5WWM1-2">
          <mxGeometry relative="1" as="geometry" />
        </mxCell>
        <mxCell id="tAokP68bowRmvEg5WWM1-1" value="Clash Royale API" style="rounded=1;whiteSpace=wrap;html=1;fontStyle=1" vertex="1" parent="1">
          <mxGeometry x="6" y="272" width="120" height="60" as="geometry" />
        </mxCell>
        <mxCell id="tAokP68bowRmvEg5WWM1-29" style="edgeStyle=orthogonalEdgeStyle;rounded=0;orthogonalLoop=1;jettySize=auto;html=1;exitX=0.5;exitY=0;exitDx=0;exitDy=0;entryX=0.5;entryY=1;entryDx=0;entryDy=0;" edge="1" parent="1" source="tAokP68bowRmvEg5WWM1-2" target="tAokP68bowRmvEg5WWM1-6">
          <mxGeometry relative="1" as="geometry" />
        </mxCell>
        <mxCell id="tAokP68bowRmvEg5WWM1-2" value="Databricks Extraction Notebook" style="rounded=1;whiteSpace=wrap;html=1;fontStyle=1" vertex="1" parent="1">
          <mxGeometry x="156" y="272" width="126" height="60" as="geometry" />
        </mxCell>
        <mxCell id="tAokP68bowRmvEg5WWM1-33" style="edgeStyle=orthogonalEdgeStyle;rounded=0;orthogonalLoop=1;jettySize=auto;html=1;exitX=0.5;exitY=1;exitDx=0;exitDy=0;entryX=0.5;entryY=0;entryDx=0;entryDy=0;" edge="1" parent="1" source="tAokP68bowRmvEg5WWM1-3" target="tAokP68bowRmvEg5WWM1-19">
          <mxGeometry relative="1" as="geometry" />
        </mxCell>
        <mxCell id="tAokP68bowRmvEg5WWM1-3" value="ODBC Connector" style="rounded=1;whiteSpace=wrap;html=1;fontStyle=1" vertex="1" parent="1">
          <mxGeometry x="772" y="80" width="110" height="60" as="geometry" />
        </mxCell>
        <mxCell id="tAokP68bowRmvEg5WWM1-16" style="edgeStyle=orthogonalEdgeStyle;rounded=0;orthogonalLoop=1;jettySize=auto;html=1;exitX=0;exitY=0.5;exitDx=0;exitDy=0;entryX=1;entryY=0.5;entryDx=0;entryDy=0;" edge="1" parent="1" source="tAokP68bowRmvEg5WWM1-4" target="tAokP68bowRmvEg5WWM1-13">
          <mxGeometry relative="1" as="geometry">
            <mxPoint x="725" y="130" as="targetPoint" />
          </mxGeometry>
        </mxCell>
        <mxCell id="tAokP68bowRmvEg5WWM1-32" style="edgeStyle=orthogonalEdgeStyle;rounded=0;orthogonalLoop=1;jettySize=auto;html=1;exitX=0.5;exitY=0;exitDx=0;exitDy=0;entryX=0.5;entryY=1;entryDx=0;entryDy=0;" edge="1" parent="1" source="tAokP68bowRmvEg5WWM1-4" target="tAokP68bowRmvEg5WWM1-5">
          <mxGeometry relative="1" as="geometry" />
        </mxCell>
        <mxCell id="tAokP68bowRmvEg5WWM1-4" value="AWS Glue Crawlers" style="rounded=1;whiteSpace=wrap;html=1;fontStyle=1" vertex="1" parent="1">
          <mxGeometry x="602" y="272" width="118" height="60" as="geometry" />
        </mxCell>
        <mxCell id="tAokP68bowRmvEg5WWM1-37" style="edgeStyle=orthogonalEdgeStyle;rounded=0;orthogonalLoop=1;jettySize=auto;html=1;exitX=1;exitY=0.5;exitDx=0;exitDy=0;entryX=0;entryY=0.5;entryDx=0;entryDy=0;" edge="1" parent="1" source="tAokP68bowRmvEg5WWM1-5" target="tAokP68bowRmvEg5WWM1-3">
          <mxGeometry relative="1" as="geometry" />
        </mxCell>
        <mxCell id="tAokP68bowRmvEg5WWM1-5" value="AWS Glue Data Catalog Tables" style="rounded=1;whiteSpace=wrap;html=1;fontStyle=1" vertex="1" parent="1">
          <mxGeometry x="601" y="80" width="120" height="60" as="geometry" />
        </mxCell>
        <mxCell id="tAokP68bowRmvEg5WWM1-30" style="edgeStyle=orthogonalEdgeStyle;rounded=0;orthogonalLoop=1;jettySize=auto;html=1;exitX=1;exitY=0.5;exitDx=0;exitDy=0;entryX=0;entryY=0.5;entryDx=0;entryDy=0;" edge="1" parent="1" source="tAokP68bowRmvEg5WWM1-6" target="tAokP68bowRmvEg5WWM1-8">
          <mxGeometry relative="1" as="geometry" />
        </mxCell>
        <mxCell id="tAokP68bowRmvEg5WWM1-6" value="AWS s3&lt;div&gt;( Raw_Json_Data) folder&lt;/div&gt;" style="rounded=1;whiteSpace=wrap;html=1;fontStyle=1" vertex="1" parent="1">
          <mxGeometry x="157.5" y="80" width="123" height="60" as="geometry" />
        </mxCell>
        <mxCell id="tAokP68bowRmvEg5WWM1-36" style="edgeStyle=orthogonalEdgeStyle;rounded=0;orthogonalLoop=1;jettySize=auto;html=1;exitX=0.5;exitY=1;exitDx=0;exitDy=0;entryX=0.5;entryY=0;entryDx=0;entryDy=0;" edge="1" parent="1" source="tAokP68bowRmvEg5WWM1-8" target="tAokP68bowRmvEg5WWM1-13">
          <mxGeometry relative="1" as="geometry" />
        </mxCell>
        <mxCell id="tAokP68bowRmvEg5WWM1-8" value="Databricks Transformation Notebook" style="rounded=1;whiteSpace=wrap;html=1;fontStyle=1" vertex="1" parent="1">
          <mxGeometry x="340" y="80" width="150" height="60" as="geometry" />
        </mxCell>
        <mxCell id="tAokP68bowRmvEg5WWM1-35" style="edgeStyle=orthogonalEdgeStyle;rounded=0;orthogonalLoop=1;jettySize=auto;html=1;exitX=1;exitY=0.5;exitDx=0;exitDy=0;" edge="1" parent="1" source="tAokP68bowRmvEg5WWM1-13">
          <mxGeometry relative="1" as="geometry">
            <mxPoint x="480" y="302" as="targetPoint" />
          </mxGeometry>
        </mxCell>
        <mxCell id="tAokP68bowRmvEg5WWM1-13" value="AWS s3&lt;div&gt;( Transformed_csv_Data) folder&lt;/div&gt;" style="rounded=1;whiteSpace=wrap;html=1;fontStyle=1" vertex="1" parent="1">
          <mxGeometry x="340" y="272" width="150" height="60" as="geometry" />
        </mxCell>
        <mxCell id="tAokP68bowRmvEg5WWM1-34" style="edgeStyle=orthogonalEdgeStyle;rounded=0;orthogonalLoop=1;jettySize=auto;html=1;exitX=1;exitY=0.5;exitDx=0;exitDy=0;" edge="1" parent="1" source="tAokP68bowRmvEg5WWM1-19">
          <mxGeometry relative="1" as="geometry">
            <mxPoint x="1041.4000244140625" y="302" as="targetPoint" />
          </mxGeometry>
        </mxCell>
        <mxCell id="tAokP68bowRmvEg5WWM1-19" value="Power BI" style="rounded=1;whiteSpace=wrap;html=1;fontStyle=1" vertex="1" parent="1">
          <mxGeometry x="772" y="272" width="110" height="60" as="geometry" />
        </mxCell>
        <mxCell id="tAokP68bowRmvEg5WWM1-24" value="Raw Json Data" style="text;html=1;align=center;verticalAlign=middle;whiteSpace=wrap;rounded=0;rotation=-90;fontStyle=1" vertex="1" parent="1">
          <mxGeometry x="149" y="196" width="100" height="30" as="geometry" />
        </mxCell>
        <mxCell id="tAokP68bowRmvEg5WWM1-25" value="Transformed CSV Data" style="text;html=1;align=center;verticalAlign=middle;whiteSpace=wrap;rounded=0;rotation=90;fontStyle=1" vertex="1" parent="1">
          <mxGeometry x="392" y="196" width="100" height="30" as="geometry" />
        </mxCell>
        <mxCell id="tAokP68bowRmvEg5WWM1-26" value="Crawling CSV Files" style="text;html=1;align=center;verticalAlign=middle;whiteSpace=wrap;rounded=0;rotation=0;fontStyle=1" vertex="1" parent="1">
          <mxGeometry x="492" y="268" width="110" height="30" as="geometry" />
        </mxCell>
        <mxCell id="tAokP68bowRmvEg5WWM1-27" value="Interactive Visualization Report" style="text;html=1;align=center;verticalAlign=middle;whiteSpace=wrap;rounded=0;fontStyle=1" vertex="1" parent="1">
          <mxGeometry x="900" y="264" width="120" height="30" as="geometry" />
        </mxCell>
      </root>
    </mxGraphModel>
  </diagram>
</mxfile>
